<svg width="36" height="36" viewBox="0 0 36 36" fill="none" xmlns="http://www.w3.org/2000/svg">
<g clip-path="url(#clip0_193_276)">
<path d="M18.0465 20.8326C19.7371 20.8326 21.121 19.4556 21.121 17.7581C21.121 17.0901 20.9029 16.4697 20.5416 15.9653C19.9826 15.195 19.0759 14.6837 18.0534 14.6837C17.0308 14.6837 16.1241 15.1881 15.5652 15.9653C15.2039 16.4697 14.9857 17.0901 14.9857 17.7581C14.9789 19.4556 16.3559 20.8326 18.0465 20.8326Z" fill="#000E56"/>
<path d="M24.7547 14.0086V11.4318V11.05H24.373L21.7961 11.0569L21.8098 14.0154L24.7547 14.0086Z" fill="#000E56"/>
<path d="M22.8189 17.7646C22.8189 20.396 20.6783 22.5365 18.047 22.5365C15.4156 22.5365 13.2751 20.396 13.2751 17.7646C13.2751 17.1306 13.4046 16.5239 13.6296 15.9717H11.0255V23.1159C11.0255 24.0362 11.7754 24.7861 12.6956 24.7861H23.3983C24.3186 24.7861 25.0685 24.0362 25.0685 23.1159V15.9717H22.4644C22.6962 16.5239 22.8189 17.1306 22.8189 17.7646Z" fill="#000E56"/>
<path d="M18.0466 0.312866C8.40735 0.312866 0.595093 8.12513 0.595093 17.7643C0.595093 27.4035 8.40735 35.2158 18.0466 35.2158C27.6858 35.2158 35.498 27.4035 35.498 17.7643C35.498 8.12513 27.6858 0.312866 18.0466 0.312866ZM26.7723 15.9715V23.1157C26.7723 24.9767 25.2589 26.4901 23.3979 26.4901H12.6952C10.8342 26.4901 9.32083 24.9767 9.32083 23.1157V15.9715V12.4062C9.32083 10.5452 10.8342 9.03178 12.6952 9.03178H23.3979C25.2589 9.03178 26.7723 10.5452 26.7723 12.4062V15.9715Z" fill="#000E56"/>
</g>
<defs>
<clipPath id="clip0_193_276">
<rect width="34.9029" height="34.9029" fill="white" transform="translate(0.595215 0.312866)"/>
</clipPath>
</defs>
</svg>
