<svg width="36" height="36" viewBox="0 0 36 36" fill="none" xmlns="http://www.w3.org/2000/svg">
<g clip-path="url(#clip0_193_268)">
<path d="M18.2226 0.312866C8.58338 0.312866 0.771118 8.12513 0.771118 17.7643C0.771118 27.4035 8.58338 35.2158 18.2226 35.2158C27.8618 35.2158 35.6741 27.4035 35.6741 17.7643C35.6741 8.12513 27.8618 0.312866 18.2226 0.312866ZM13.3416 25.0653H9.93996V14.1786H13.3416V25.0653ZM11.5488 12.8152H11.5215C10.2876 12.8152 9.49004 11.9835 9.49004 10.9269C9.49004 9.84982 10.3149 9.0386 11.5692 9.0386C12.8235 9.0386 13.5939 9.84982 13.6211 10.9269C13.6279 11.9767 12.8304 12.8152 11.5488 12.8152ZM26.9483 25.0653H23.0899V19.4345C23.0899 17.962 22.49 16.9531 21.1607 16.9531C20.145 16.9531 19.5792 17.6348 19.3201 18.2892C19.2247 18.521 19.2383 18.8482 19.2383 19.1823V25.0653H15.414C15.414 25.0653 15.4617 15.0853 15.414 14.1786H19.2383V15.8897C19.4633 15.1398 20.6835 14.0764 22.6332 14.0764C25.0532 14.0764 26.9483 15.6443 26.9483 19.0118V25.0653Z" fill="#000E56"/>
</g>
<defs>
<clipPath id="clip0_193_268">
<rect width="34.9029" height="34.9029" fill="white" transform="translate(0.770996 0.312866)"/>
</clipPath>
</defs>
</svg>
