<svg width="22" height="23" viewBox="0 0 22 23" fill="none" xmlns="http://www.w3.org/2000/svg">
<path d="M20.0019 15.944V18.6716C20.0029 18.9248 19.951 19.1754 19.8496 19.4074C19.7481 19.6394 19.5994 19.8477 19.4128 20.0189C19.2262 20.19 19.0059 20.3204 18.766 20.4015C18.5262 20.4826 18.272 20.5127 18.0198 20.49C15.2221 20.186 12.5346 19.2299 10.1735 17.6987C7.97669 16.3028 6.11421 14.4403 4.71829 12.2436C3.18173 9.87165 2.22549 7.17114 1.92706 4.36083C1.90434 4.1094 1.93422 3.85601 2.0148 3.61676C2.09537 3.37752 2.22488 3.15768 2.39508 2.97123C2.56528 2.78478 2.77243 2.63582 3.00335 2.53382C3.23428 2.43182 3.48391 2.37902 3.73636 2.37878H6.46394C6.90518 2.37444 7.33294 2.53069 7.6675 2.81841C8.00206 3.10612 8.22058 3.50568 8.28233 3.9426C8.39746 4.81548 8.61096 5.67255 8.91877 6.49744C9.0411 6.82286 9.06757 7.17653 8.99506 7.51653C8.92254 7.85654 8.75408 8.16864 8.50963 8.41584L7.35495 9.57052C8.64924 11.8467 10.5339 13.7314 12.8101 15.0257L13.9648 13.871C14.212 13.6266 14.5241 13.4581 14.8641 13.3856C15.2041 13.3131 15.5578 13.3395 15.8832 13.4619C16.7081 13.7697 17.5652 13.9832 18.438 14.0983C18.8797 14.1606 19.2831 14.3831 19.5714 14.7234C19.8597 15.0637 20.0129 15.4981 20.0019 15.944Z" stroke="#000E56" stroke-width="0.909195" stroke-linecap="round" stroke-linejoin="round"/>
</svg>
