<svg width="35" height="36" viewBox="0 0 35 36" fill="none" xmlns="http://www.w3.org/2000/svg">
<g clip-path="url(#clip0_193_266)">
<path d="M17.4515 0.312866C7.81226 0.312866 0 8.12513 0 17.7643C0 27.4035 7.81226 35.2158 17.4515 35.2158C27.0907 35.2158 34.9029 27.4035 34.9029 17.7643C34.9029 8.12513 27.0907 0.312866 17.4515 0.312866ZM24.4184 15.0512C24.4252 15.2012 24.4252 15.3579 24.4252 15.5147C24.4252 20.2525 20.8191 25.7198 14.2202 25.7198C12.1956 25.7198 10.3073 25.1267 8.72574 24.1109C9.00523 24.145 9.29155 24.1587 9.58468 24.1587C11.2617 24.1587 12.8091 23.586 14.0362 22.6248C12.4683 22.5976 11.1389 21.5614 10.689 20.1366C10.9072 20.1775 11.1321 20.198 11.3639 20.198C11.6911 20.198 12.0115 20.1571 12.3115 20.0685C10.6686 19.7413 9.4347 18.2892 9.4347 16.5509V16.51C9.91871 16.7759 10.4709 16.9395 11.0571 16.9599C10.0959 16.3191 9.46197 15.2148 9.46197 13.9741C9.46197 13.3197 9.63921 12.6993 9.94598 12.1676C11.7184 14.3422 14.3566 15.767 17.3356 15.9169C17.2742 15.6579 17.2401 15.3852 17.2401 15.0989C17.2401 13.122 18.849 11.5132 20.8259 11.5132C21.8552 11.5132 22.7892 11.9495 23.4436 12.6448C24.2616 12.4812 25.0251 12.188 25.7205 11.7722C25.4546 12.6107 24.882 13.3128 24.1457 13.756C24.8683 13.6673 25.5637 13.4765 26.2045 13.1901C25.7273 13.9127 25.1206 14.5399 24.4184 15.0512Z" fill="#000E56"/>
</g>
<defs>
<clipPath id="clip0_193_266">
<rect width="34.9029" height="34.9029" fill="white" transform="translate(0 0.312866)"/>
</clipPath>
</defs>
</svg>
