<svg width="36" height="36" viewBox="0 0 36 36" fill="none" xmlns="http://www.w3.org/2000/svg">
<g clip-path="url(#clip0_193_270)">
<path d="M15.6681 21.1255L21.3807 17.7716L15.6681 14.4176V21.1255Z" fill="#000E56"/>
<path d="M17.9934 0.312958C8.35422 0.312958 0.541962 8.12522 0.541962 17.7644C0.541962 27.4036 8.35422 35.2159 17.9934 35.2159C27.6326 35.2159 35.4449 27.4036 35.4449 17.7644C35.4449 8.12522 27.6326 0.312958 17.9934 0.312958ZM26.7192 20.8866C26.7192 23.8929 23.7129 23.8929 23.7129 23.8929H12.274C9.2677 23.8929 9.2677 20.8866 9.2677 20.8866V14.6491C9.2677 11.6428 12.274 11.6428 12.274 11.6428H23.7129C26.7192 11.6428 26.7192 14.6491 26.7192 14.6491V20.8866Z" fill="#000E56"/>
</g>
<defs>
<clipPath id="clip0_193_270">
<rect width="34.9029" height="34.9029" fill="white" transform="translate(0.542084 0.312866)"/>
</clipPath>
</defs>
</svg>
