<svg width="144" height="46" viewBox="0 0 144 46" fill="none" xmlns="http://www.w3.org/2000/svg">
<path d="M109.695 30.8345L109.622 31.2737C109.481 32.1033 109.112 32.7675 108.516 33.2663C107.919 33.7597 107.201 34.0064 106.36 34.0064C105.482 34.0064 104.802 33.7109 104.319 33.1199C103.836 32.5235 103.668 31.8024 103.815 30.9565C103.956 30.1269 104.343 29.441 104.978 28.8988C105.612 28.3566 106.35 28.0855 107.19 28.0855C107.754 28.0855 108.236 28.2075 108.638 28.4515C109.044 28.6901 109.353 29.029 109.565 29.4681L108.54 30.0049C108.253 29.4519 107.767 29.1754 107.084 29.1754C106.537 29.1754 106.062 29.3489 105.661 29.6959C105.265 30.0375 105.021 30.4848 104.929 31.0378C104.831 31.5909 104.921 32.0409 105.197 32.3879C105.479 32.735 105.902 32.9085 106.466 32.9085C107.399 32.9085 108.022 32.5479 108.337 31.8268H106.669L106.84 30.8345H109.695ZM114.796 30.1676C114.725 30.5471 114.568 30.8779 114.324 31.1598C114.085 31.4418 113.787 31.6451 113.429 31.7698L114.291 33.8926H113.153L112.364 31.9162H111.428L111.079 33.8926H109.956L110.957 28.1994H113.177C113.692 28.1994 114.112 28.3973 114.438 28.7931C114.768 29.1889 114.888 29.6471 114.796 30.1676ZM113.356 30.6881C113.529 30.5255 113.638 30.3248 113.681 30.0863C113.725 29.8477 113.681 29.6498 113.551 29.4925C113.421 29.3299 113.234 29.2486 112.99 29.2486H111.892L111.599 30.9321H112.754C112.982 30.9321 113.182 30.8508 113.356 30.6881ZM117.597 34.0064C116.773 34.0064 116.119 33.7082 115.637 33.1118C115.154 32.5099 114.989 31.7942 115.141 30.9646C115.282 30.1242 115.669 29.4356 116.304 28.8988C116.944 28.3566 117.7 28.0855 118.573 28.0855C119.386 28.0855 120.034 28.3864 120.517 28.9883C121.005 29.5901 121.176 30.3059 121.029 31.1354C120.883 31.9759 120.492 32.6645 119.858 33.2013C119.224 33.738 118.47 34.0064 117.597 34.0064ZM117.727 32.9085C118.258 32.9085 118.73 32.735 119.142 32.3879C119.56 32.0409 119.817 31.5963 119.915 31.0541C120.007 30.5119 119.909 30.0646 119.622 29.7121C119.335 29.3543 118.928 29.1754 118.402 29.1754C117.876 29.1754 117.41 29.3516 117.003 29.704C116.602 30.051 116.353 30.4983 116.255 31.046C116.157 31.5882 116.247 32.0355 116.523 32.3879C116.805 32.735 117.207 32.9085 117.727 32.9085ZM122.2 33.8926L121.606 28.1994H122.72L123.086 32.4205L125.022 28.1994H125.982L126.437 32.4205L128.275 28.1994H129.487L126.893 33.8926H125.616L125.201 30.1351L123.477 33.8926H122.2ZM133.904 28.1994L133.716 29.273H132.179L131.366 33.8926H130.244L131.057 29.273H129.528L129.715 28.1994H133.904ZM137.767 28.1994H138.881L137.881 33.8926H136.767L137.181 31.534H135.067L134.652 33.8926H133.53L134.53 28.1994H135.652L135.254 30.4604H137.369L137.767 28.1994Z" fill="#000E56"/>
<path d="M98.3695 41.8741C97.4535 41.8741 96.7478 41.5572 96.2524 40.9235C95.7627 40.2898 95.5956 39.5322 95.7512 38.6508C95.9009 37.7751 96.3157 37.0492 96.9955 36.4731C97.6753 35.8913 98.4473 35.6004 99.3114 35.6004C99.8991 35.6004 100.403 35.7329 100.824 35.9979C101.25 36.2629 101.567 36.6258 101.774 37.0867L101.057 37.4669C100.717 36.741 100.121 36.3781 99.2682 36.3781C98.5827 36.3781 97.9835 36.6028 97.4708 37.0521C96.9638 37.5015 96.6528 38.0632 96.5375 38.7372C96.4223 39.417 96.5404 39.9787 96.8918 40.4223C97.249 40.8659 97.7646 41.0877 98.4387 41.0877C98.8765 41.0877 99.2798 40.9897 99.6485 40.7939C100.017 40.598 100.322 40.3244 100.564 39.9729L101.23 40.3964C100.901 40.8515 100.484 41.2115 99.9768 41.4766C99.4756 41.7416 98.9399 41.8741 98.3695 41.8741ZM103.844 41.8741C103.204 41.8741 102.691 41.6523 102.305 41.2087C101.919 40.7651 101.787 40.2034 101.908 39.5236C102.029 38.8553 102.346 38.3224 102.858 37.9249C103.371 37.5274 103.942 37.3286 104.57 37.3286C105.186 37.3286 105.681 37.5504 106.056 37.994C106.43 38.4376 106.56 38.9936 106.445 39.6618C106.329 40.3416 106.021 40.8803 105.52 41.2778C105.019 41.6753 104.46 41.8741 103.844 41.8741ZM103.904 41.1395C104.325 41.1395 104.708 41.0013 105.053 40.7247C105.405 40.4482 105.621 40.068 105.702 39.5841C105.782 39.1174 105.696 38.7487 105.442 38.478C105.195 38.2014 104.863 38.0632 104.449 38.0632C104.039 38.0689 103.662 38.2072 103.316 38.478C102.971 38.7487 102.752 39.1232 102.66 39.6014C102.579 40.0853 102.663 40.4655 102.91 40.742C103.164 41.0128 103.495 41.1453 103.904 41.1395ZM109.854 37.3286C110.361 37.3286 110.744 37.49 111.003 37.8126C111.268 38.1352 111.355 38.5673 111.263 39.1088L110.796 41.7617H110.044L110.502 39.152C110.566 38.7948 110.522 38.5212 110.373 38.3311C110.223 38.1409 109.975 38.0459 109.629 38.0459C109.261 38.0459 108.938 38.164 108.662 38.4002C108.385 38.6306 108.206 38.9878 108.126 39.4717V39.4631L107.72 41.7617H106.968L107.728 37.441H108.48L108.376 38.0113C108.751 37.5562 109.243 37.3286 109.854 37.3286ZM113.427 41.8741C113.001 41.8741 112.649 41.7819 112.373 41.5975C112.102 41.4074 111.915 41.1511 111.811 40.8284L112.485 40.4828C112.531 40.6844 112.641 40.8486 112.813 40.9753C112.992 41.1021 113.217 41.1655 113.487 41.1655C113.741 41.1655 113.951 41.1165 114.118 41.0186C114.291 40.9206 114.395 40.7795 114.429 40.5951C114.452 40.4684 114.426 40.3618 114.352 40.2754C114.277 40.189 114.17 40.1198 114.032 40.068C113.899 40.0104 113.75 39.9557 113.582 39.9038C113.421 39.852 113.26 39.7915 113.099 39.7223C112.937 39.6532 112.793 39.5725 112.666 39.4804C112.54 39.3882 112.445 39.2615 112.381 39.1001C112.318 38.9331 112.306 38.7401 112.347 38.5212C112.41 38.1698 112.594 37.8846 112.9 37.6657C113.211 37.441 113.574 37.3286 113.989 37.3286C114.726 37.3286 115.227 37.6282 115.492 38.2274L114.827 38.573C114.712 38.2101 114.421 38.0286 113.954 38.0286C113.752 38.0286 113.568 38.0776 113.401 38.1755C113.234 38.2677 113.133 38.4088 113.099 38.5989C113.07 38.7718 113.127 38.91 113.271 39.0137C113.421 39.1174 113.608 39.2038 113.833 39.273C114.064 39.3421 114.291 39.4199 114.516 39.5063C114.74 39.5927 114.919 39.7339 115.052 39.9297C115.184 40.1256 115.224 40.3762 115.173 40.6815C115.103 41.0618 114.913 41.3556 114.602 41.563C114.291 41.7704 113.899 41.8741 113.427 41.8741ZM119.63 37.441H120.381L119.621 41.7617H118.869L118.973 41.1914C118.598 41.6465 118.106 41.8741 117.495 41.8741C116.988 41.8741 116.602 41.7128 116.337 41.3901C116.078 41.0675 115.994 40.6354 116.087 40.0939L116.553 37.441H117.305L116.847 40.0507C116.784 40.4079 116.827 40.6815 116.977 40.8716C117.126 41.0618 117.374 41.1568 117.72 41.1568C118.088 41.1568 118.411 41.0416 118.688 40.8112C118.964 40.575 119.143 40.2149 119.223 39.731V39.7396L119.63 37.441ZM120.774 41.7617L121.232 39.1347L121.88 35.4535H122.632L121.526 41.7617H120.774ZM124.513 38.1669L124.099 40.5087C124.058 40.7161 124.075 40.8659 124.15 40.9581C124.225 41.0502 124.346 41.0992 124.513 41.105C124.686 41.105 124.899 41.0992 125.153 41.0877L125.032 41.7617C124.392 41.8481 123.929 41.7934 123.641 41.5975C123.352 41.3959 123.255 41.033 123.347 40.5087L123.753 38.1669H122.897L123.036 37.441H123.883L124.055 36.4559L124.85 36.2312L124.634 37.441H125.792L125.663 38.1669H124.513ZM127.201 36.6546C127.062 36.6546 126.953 36.6056 126.872 36.5077C126.792 36.4098 126.763 36.2917 126.786 36.1534C126.809 36.0094 126.875 35.8884 126.985 35.7905C127.094 35.6925 127.224 35.6436 127.373 35.6436C127.512 35.6436 127.621 35.6954 127.702 35.7991C127.788 35.897 127.82 36.0151 127.797 36.1534C127.768 36.2974 127.699 36.4184 127.589 36.5164C127.48 36.6085 127.35 36.6546 127.201 36.6546ZM125.922 41.7617L126.682 37.441H127.434L126.673 41.7617H125.922ZM130.707 37.3286C131.214 37.3286 131.597 37.49 131.856 37.8126C132.121 38.1352 132.207 38.5673 132.115 39.1088L131.649 41.7617H130.897L131.355 39.152C131.418 38.7948 131.375 38.5212 131.225 38.3311C131.075 38.1409 130.828 38.0459 130.482 38.0459C130.113 38.0459 129.791 38.164 129.514 38.4002C129.238 38.6306 129.059 38.9878 128.978 39.4717V39.4631L128.572 41.7617H127.82L128.581 37.441H129.333L129.229 38.0113C129.603 37.5562 130.096 37.3286 130.707 37.3286ZM137.053 37.441H137.797L137.071 41.5802C136.956 42.237 136.67 42.7382 136.215 43.0839C135.766 43.4295 135.224 43.6024 134.591 43.6024C134.13 43.6024 133.729 43.5102 133.389 43.3258C133.055 43.1415 132.813 42.8822 132.664 42.5481L133.329 42.2024C133.525 42.6691 133.96 42.9024 134.634 42.9024C135.106 42.9024 135.486 42.7872 135.775 42.5567C136.068 42.3263 136.253 42.0008 136.328 41.5802L136.414 41.0704C135.982 41.5774 135.42 41.8309 134.729 41.8309C134.072 41.8309 133.568 41.6033 133.217 41.1482C132.871 40.6873 132.75 40.1342 132.854 39.489C132.952 38.8553 133.237 38.3368 133.709 37.9336C134.182 37.5303 134.712 37.3286 135.299 37.3286C135.656 37.3286 135.976 37.4093 136.258 37.5706C136.546 37.7262 136.763 37.9537 136.907 38.2533L137.053 37.441ZM134.902 41.105C135.317 41.105 135.688 40.9782 136.016 40.7247C136.345 40.4655 136.558 40.1256 136.656 39.7051L136.699 39.4804C136.751 39.0425 136.642 38.694 136.371 38.4348C136.1 38.1755 135.766 38.0459 135.368 38.0459C134.954 38.0459 134.573 38.1842 134.228 38.4607C133.882 38.7314 133.675 39.0944 133.605 39.5495C133.531 39.9931 133.614 40.3647 133.856 40.6643C134.104 40.9581 134.452 41.105 134.902 41.105Z" fill="#000E56"/>
<path d="M53.5601 25L56.1321 5.17908H62.6683L60.639 18.0155H61.229L68.1427 5.17908H73.3103L72.0597 18.0155H72.6496L78.8554 5.17908H85.6276L75.3868 25H66.5853L67.8123 15.4671H67.246L62.3616 25H53.5601ZM94.3929 25L94.3457 22.3808H85.9926L84.27 25H77.3091L90.7826 5.17908H99.9852L100.882 25H94.3929ZM89.1781 17.5436H94.2985L94.2041 11.3141H93.2602L89.1781 17.5436ZM102.032 25L108.474 5.17908H115.01L110.314 19.5492H121.263L119.517 25H102.032ZM121.706 25L128.148 5.17908H134.684L129.988 19.5492H140.937L139.191 25H121.706Z" fill="#000E56"/>
<path d="M8.08671 43.4218C3.40082 43.4218 0.507645 42.0373 1.92761 37.9904H6.09876C5.85026 39.1796 7.12823 39.6589 8.77894 39.6589C10.5006 39.6589 12.0626 39.2506 12.0626 38.2212C12.0626 37.7597 11.8141 37.2804 10.3409 37.0675L9.15168 36.8722C7.64297 36.6592 3.88006 36.18 3.88006 33.0738C3.88006 29.5239 7.25248 27.5182 12.0271 27.5182C16.5887 27.5182 19.4642 29.4529 17.8845 32.9141H13.8553C13.9973 32.1508 13.3761 31.2811 11.3349 31.2811C9.64867 31.2811 8.56594 31.8491 8.56594 32.7188C8.56594 33.1448 8.83219 33.5708 9.98591 33.766L10.8556 33.9258C13.0211 34.3518 16.8727 34.5825 16.8727 37.7774C16.8727 42.0196 12.7548 43.4218 8.08671 43.4218ZM36.5978 28.0152L35.2665 32.1153H30.0127L26.4805 42.9248H21.5639L25.096 32.1153H19.7179L21.0314 28.0152H36.5978ZM51.7795 32.3638C51.7795 35.044 50.1997 37.032 48.1408 38.1324L49.2413 42.9248H44.5199L43.6857 39.0909H39.7453L38.5205 42.9248H33.6039L38.3963 28.0152H46.1706C49.9512 28.0152 51.7795 29.4529 51.7795 32.3638ZM41.9994 32.0976L40.9167 35.4877L44.3246 35.47C45.3896 35.47 46.7741 34.7778 46.7741 33.411C46.7741 32.4171 46.2061 32.0976 45.0524 32.0976H41.9994ZM67.6376 31.9378H59.0645L58.4433 33.8548H66.9631L65.9336 36.9965H57.4316L56.7748 39.0022H65.3301L64.0522 42.9248H50.598L55.4081 28.0152H68.9155L67.6376 31.9378ZM82.9823 31.9378H74.4093L73.7881 33.8548H82.3079L81.2784 36.9965H72.7763L72.1196 39.0022H80.6749L79.3969 42.9248H65.9428L70.7529 28.0152H84.2603L82.9823 31.9378ZM101.575 28.0152L100.244 32.1153H94.9902L91.458 42.9248H86.5414L90.0736 32.1153H84.6955L86.0089 28.0152H101.575Z" fill="#000E56"/>
<path d="M40.2417 4.72973L40.0535 5.8191H38.1025L37.0726 11.6621H35.9337L36.9636 5.8191H35.0028L35.1909 4.72973H40.2417ZM43.6389 6.58167C44.2067 6.58167 44.6392 6.76653 44.9363 7.13626C45.24 7.49938 45.339 7.99455 45.2334 8.62177L44.6986 11.6621H43.629L44.144 8.7307C44.21 8.35437 44.1605 8.07048 43.9954 7.87901C43.837 7.68094 43.5828 7.58191 43.2329 7.58191C42.8697 7.58191 42.5528 7.69085 42.2821 7.90872C42.0114 8.1266 41.8332 8.46001 41.7474 8.90896L41.2621 11.6621H40.1925L41.4106 4.72973H42.4802L42.0247 7.30461C42.4406 6.82265 42.9787 6.58167 43.6389 6.58167ZM49.3565 6.58167C50.0959 6.58167 50.6703 6.83585 51.0797 7.34423C51.4956 7.8526 51.6343 8.46991 51.4956 9.19616C51.4362 9.43384 51.3966 9.5824 51.3768 9.64182H47.4352C47.4418 10.0247 47.5673 10.3152 47.8116 10.5133C48.0558 10.7114 48.3761 10.8104 48.7722 10.8104C49.3598 10.8104 49.8253 10.6024 50.1686 10.1865L50.9509 10.7807C50.4096 11.4541 49.6536 11.7909 48.6831 11.7909C47.8842 11.7909 47.2735 11.5301 46.8509 11.0085C46.4284 10.4869 46.2798 9.84649 46.4053 9.08723C46.5307 8.36098 46.8707 7.76347 47.4253 7.29471C47.9799 6.81935 48.6236 6.58167 49.3565 6.58167ZM47.5838 8.76041H50.4855C50.4921 8.35107 50.3831 8.04737 50.1587 7.8493C49.9408 7.65123 49.6503 7.5522 49.2872 7.5522C48.8976 7.5522 48.551 7.66114 48.2473 7.87901C47.9502 8.09028 47.729 8.38408 47.5838 8.76041Z" fill="#000E56"/>
<path d="M14.6626 11.0797L13.079 20.0918H11.5985L12.7314 13.6803L9.17809 18.1993H8.99785L7.07956 13.5516L5.93374 20.0918H4.45318L6.03674 11.0797H7.59454L9.44846 15.6501L12.976 11.0797H14.6626ZM21.5449 13.6546H22.9353L21.8024 20.0918H20.4119L20.5407 19.3322C19.9399 19.9502 19.1545 20.2592 18.1847 20.2592C17.2491 20.2592 16.5281 19.9073 16.0218 19.2035C15.5239 18.4911 15.3609 17.6671 15.5325 16.7316C15.7042 15.7703 16.129 14.9892 16.8071 14.3884C17.4937 13.7876 18.2877 13.4872 19.1889 13.4872C20.1931 13.4872 20.9183 13.8906 21.3646 14.6974L21.5449 13.6546ZM18.5966 18.9331C19.1459 18.9331 19.6395 18.7657 20.0772 18.431C20.5149 18.0877 20.8025 17.6457 20.9398 17.1049L21.0042 16.7316C21.0642 16.1393 20.9269 15.6716 20.5922 15.3283C20.2574 14.9849 19.8154 14.8133 19.2661 14.8133C18.7082 14.8133 18.2061 14.9935 17.7598 15.354C17.3135 15.7145 17.0345 16.208 16.923 16.8346C16.82 17.4354 16.9273 17.9375 17.2448 18.3409C17.5624 18.7357 18.013 18.9331 18.5966 18.9331ZM30.6453 11.0797H32.0357L30.4522 20.0918H29.0617L29.2033 19.3193C28.594 19.9459 27.8 20.2592 26.8216 20.2592C25.886 20.2592 25.1651 19.9073 24.6587 19.2035C24.1609 18.4911 23.9978 17.6671 24.1694 16.7316C24.3411 15.7703 24.766 14.9892 25.444 14.3884C26.1307 13.7876 26.9246 13.4872 27.8258 13.4872C28.8386 13.4872 29.5638 13.8949 30.0016 14.7103L30.6453 11.0797ZM27.2464 18.9331C27.7957 18.9331 28.2893 18.7657 28.727 18.431C29.1647 18.0877 29.4523 17.6414 29.5896 17.0921L29.654 16.7187C29.714 16.1265 29.5767 15.663 29.242 15.3283C28.9072 14.9849 28.4652 14.8133 27.9159 14.8133C27.358 14.8133 26.8516 14.9935 26.3967 15.354C25.9504 15.7145 25.6715 16.208 25.5599 16.8346C25.4569 17.4354 25.5642 17.9375 25.8817 18.3409C26.2079 18.7357 26.6628 18.9331 27.2464 18.9331ZM34.9432 14.6202C35.4582 13.8735 36.1835 13.513 37.119 13.5387L36.8486 15.045C36.5397 15.0193 36.2393 15.0493 35.9474 15.1351C35.6556 15.221 35.3767 15.3969 35.1106 15.663C34.8531 15.9291 34.6772 16.2681 34.5827 16.6801L33.9776 20.0918H32.5872L33.7202 13.6546H35.1106L34.9432 14.6202ZM43.533 13.6546H44.9234L43.7905 20.0918H42.4L42.5288 19.3322C41.928 19.9502 41.1426 20.2592 40.1728 20.2592C39.2372 20.2592 38.5162 19.9073 38.0099 19.2035C37.512 18.4911 37.349 17.6671 37.5206 16.7316C37.6923 15.7703 38.1171 14.9892 38.7952 14.3884C39.4818 13.7876 40.2758 13.4872 41.177 13.4872C42.1812 13.4872 42.9064 13.8906 43.3527 14.6974L43.533 13.6546ZM40.5847 18.9331C41.134 18.9331 41.6276 18.7657 42.0653 18.431C42.503 18.0877 42.7906 17.6457 42.9279 17.1049L42.9923 16.7316C43.0523 16.1393 42.915 15.6716 42.5803 15.3283C42.2455 14.9849 41.8035 14.8133 41.2542 14.8133C40.6963 14.8133 40.1942 14.9935 39.7479 15.354C39.3016 15.7145 39.0226 16.208 38.9111 16.8346C38.8081 17.4354 38.9154 17.9375 39.2329 18.3409C39.5505 18.7357 40.0011 18.9331 40.5847 18.9331ZM48.2956 20.2592C47.0082 20.2592 46.167 19.7399 45.7722 18.7014L47.021 18.0576C47.0983 18.3409 47.2571 18.5683 47.4974 18.74C47.7377 18.9031 48.0424 18.9846 48.4115 18.9846C49.1067 18.9846 49.4929 18.7571 49.5702 18.3023C49.6045 18.0877 49.5101 17.916 49.2869 17.7873C49.0724 17.6499 48.802 17.5341 48.4759 17.4397C48.1497 17.3367 47.8236 17.2208 47.4974 17.0921C47.1798 16.9547 46.9266 16.7402 46.7378 16.4483C46.549 16.1479 46.4932 15.7703 46.5704 15.3154C46.6734 14.7575 46.9653 14.3155 47.4459 13.9893C47.9265 13.6546 48.4801 13.4872 49.1067 13.4872C49.656 13.4872 50.1281 13.6074 50.5229 13.8477C50.9263 14.0794 51.2267 14.4056 51.4241 14.8262L50.1753 15.457C50.0208 14.9764 49.6388 14.736 49.0295 14.736C48.772 14.736 48.5402 14.7961 48.3342 14.9163C48.1282 15.0279 48.0038 15.1995 47.9609 15.4313C47.918 15.6544 48.0038 15.8347 48.2184 15.972C48.4415 16.1093 48.7162 16.2252 49.0423 16.3196C49.3771 16.4054 49.7032 16.5127 50.0208 16.6415C50.3469 16.7702 50.6044 16.9848 50.7933 17.2852C50.9821 17.5856 51.0379 17.9675 50.9606 18.431C50.8576 19.0232 50.5615 19.4781 50.0723 19.7957C49.5916 20.1047 48.9994 20.2592 48.2956 20.2592Z" fill="#000E56"/>
<path d="M6.2492 7.40723H32.6819" stroke="#000E56" stroke-width="0.508321"/>
<path d="M3.28347 24.0166H51.0657" stroke="#000E56" stroke-width="0.508321"/>
</svg>
