<svg width="17" height="18" viewBox="0 0 17 18" fill="none" xmlns="http://www.w3.org/2000/svg">
<path d="M15.5833 12.4922V14.6172C15.5841 14.8145 15.5437 15.0098 15.4646 15.1905C15.3856 15.3713 15.2697 15.5335 15.1243 15.6669C14.979 15.8002 14.8073 15.9018 14.6205 15.965C14.4336 16.0282 14.2356 16.0517 14.0391 16.0339C11.8594 15.7971 9.76572 15.0522 7.92618 13.8593C6.21473 12.7718 4.76371 11.3208 3.67618 9.60931C2.47908 7.76142 1.7341 5.65752 1.5016 3.46806C1.4839 3.27219 1.50718 3.07477 1.56995 2.88838C1.63273 2.70199 1.73363 2.53072 1.86622 2.38546C1.99882 2.24021 2.16021 2.12415 2.34012 2.04468C2.52002 1.96522 2.71451 1.92408 2.91118 1.9239H5.03618C5.37994 1.92051 5.7132 2.04224 5.97385 2.2664C6.23449 2.49055 6.40474 2.80184 6.45285 3.14223C6.54254 3.82228 6.70888 4.48999 6.94868 5.13265C7.04398 5.38618 7.06461 5.66171 7.00812 5.9266C6.95162 6.1915 6.82038 6.43464 6.62993 6.62723L5.73035 7.52681C6.7387 9.30016 8.207 10.7685 9.98035 11.7768L10.8799 10.8772C11.0725 10.6868 11.3157 10.5555 11.5806 10.499C11.8455 10.4426 12.121 10.4632 12.3745 10.5585C13.0172 10.7983 13.6849 10.9646 14.3649 11.0543C14.709 11.1029 15.0233 11.2762 15.2479 11.5413C15.4725 11.8064 15.5919 12.1448 15.5833 12.4922Z" stroke="#BCC7FF" stroke-width="0.53" stroke-linecap="round" stroke-linejoin="round"/>
</svg>
